Coordinates
version=1
nRows=11
nColumns=36
inDegrees=yes

Units are S.I. units (second, meters, Newtons, ...)
If the header above contains a line with 'inDegrees', this indicates whether rotational values are in degrees (yes) or radians (no).

endheader
time	pelvis_tilt	pelvis_list	pelvis_rotation	pelvis_tx	pelvis_ty	pelvis_tz	hip_flexion_r	hip_adduction_r	hip_rotation_r	knee_angle_r	knee_angle_r_beta	ankle_angle_r	subtalar_angle_r	mtp_angle_r	hip_flexion_l	hip_adduction_l	hip_rotation_l	knee_angle_l	knee_angle_l_beta	ankle_angle_l	subtalar_angle_l	mtp_angle_l	lumbar_extension	lumbar_bending	lumbar_rotation	arm_flex_r	arm_add_r	arm_rot_r	elbow_flex_r	pro_sup_r	arm_flex_l	arm_add_l	arm_rot_l	elbow_flex_l	pro_sup_l
      0.00000000	     -5.32623471	      0.07522949	     -9.90721585	     -0.13220102	      1.29955212	     -0.12715832	     10.28622386	      1.17905570	      0.36569059	     11.78374266	      0.20566511	      8.37882218	     -9.92611083	     -6.56118188	     11.27638207	     -1.50465350	      1.07569118	     14.40423640	      0.25140135	      7.50650073	     -9.04209738	     -6.56118188	     -8.69395967	      0.60056987	     -0.85533472	      8.71763059	     -9.79035443	      7.87939399	     22.47377798	     88.75129036	      5.95921082	    -10.37423804	      5.95421092	     25.71948343	     88.33843613
      0.01666670	     -5.35784542	     -0.07994415	     -9.86468798	     -0.13248594	      1.29802528	     -0.12839993	      9.97835752	      1.30800215	     -0.00972601	     11.44070128	      0.19967791	     10.73217776	     -7.53850240	     -6.78500272	     11.45675133	     -1.60235306	      0.44612041	     14.33094342	      0.25012215	      7.40519015	     -9.67985443	     -6.78500272	     -9.02027142	      0.65527315	     -0.48054595	      9.09628774	     -9.94188678	      9.52572590	     21.36379999	     87.97498308	      7.01844089	     -9.97080464	      7.33560343	     22.99220371	     87.26761984
      0.03333330	     -5.54613017	     -0.05858834	     -9.73123010	     -0.13302404	      1.29808417	     -0.12843075	      9.79171314	      1.34757762	      0.08963650	     11.07988550	      0.19338048	     10.52951075	     -7.63985599	     -6.83524956	     11.79085264	     -1.72581823	      0.78450600	     13.87099814	      0.24209459	      7.88404636	     -9.05355707	     -6.83524956	     -9.39352035	      0.62773615	     -0.38049792	      9.53597087	    -10.00648520	     10.14831250	     20.72378430	     87.66668687	      8.08957105	     -9.94405622	      8.26519685	     22.08252427	     87.07187951
      0.05000000	     -6.20742840	      0.22162822	     -9.56216464	     -0.13353112	      1.29627408	     -0.12891322	     10.77942976	      0.96289919	     -0.94581047	     11.66700150	      0.20362759	     11.08644507	     -6.68837680	     -7.18218129	     12.80381832	     -1.66507491	      0.21803561	     14.09443331	      0.24599427	      9.21291480	     -7.54859104	     -7.18218129	     -8.74578650	      0.38896510	      0.06505431	      8.87378926	    -10.12870450	      8.22176572	     20.67808890	     95.36968027	      9.50869745	     -9.96450613	     10.11590196	     20.23480805	     96.02762086
      0.06666670	     -6.58767021	      0.59143260	     -9.73392471	     -0.13331036	      1.29517758	     -0.12861704	     11.66263089	      0.56722968	     -1.39508497	     12.59557269	      0.21983421	     11.53377603	     -6.30914157	     -7.23451145	     13.56272846	     -1.45272578	     -0.48037638	     14.85533437	      0.25927450	     10.28015951	     -6.63984347	     -7.23451145	     -8.45996150	      0.04089912	     -0.07295960	      9.22380677	    -10.03590616	      9.35134282	     20.27496140	     94.87647078	      9.69810273	    -10.13419295	     11.17094286	     19.79876225	     95.82874353
      0.08333330	     -6.81334067	      0.96589324	    -10.10743196	     -0.13345868	      1.29482650	     -0.12865071	     12.71791793	      0.14566984	     -1.45865863	     13.78389260	      0.24057431	     11.78326512	     -6.45515470	     -7.26385075	     14.05463844	     -1.19923698	     -1.01170059	     15.66705043	      0.27344161	     11.05195866	     -5.99457837	     -7.26385075	     -8.52790793	     -0.31171037	     -0.04102431	      9.50870327	     -9.91500536	      9.69287518	     20.54366873	     93.52814412	      9.34923770	    -10.34235955	     11.43885646	     19.83384731	     94.71403434
      0.10000000	     -7.49234178	      1.34904856	    -10.40681873	     -0.14140818	      1.29366550	     -0.13320679	     14.18234926	     -0.17420871	     -1.42617731	     14.91084296	      0.26024330	     11.86135476	     -6.46800820	     -7.26964354	     15.35930023	     -1.04910996	     -1.46880808	     16.76994178	      0.29269070	     11.79139250	     -5.29277113	     -7.26964354	     -8.07451743	     -0.56013086	      0.01858245	      9.69109755	     -9.92511932	     10.06369104	     20.31762602	     93.94842931	      9.33387811	    -10.54709073	     11.77969932	     19.68061672	     95.34305009
      0.11666670	     -7.38034453	      1.46733013	    -10.68158882	     -0.13266936	      1.29347358	     -0.12821712	     14.35156568	     -0.34510061	     -1.44161651	     15.46512420	      0.26991734	     11.66580443	     -6.50188945	     -7.27036922	     15.25682056	     -0.97332341	     -1.53955696	     17.01839694	      0.29702706	     11.98674736	     -5.31149671	     -7.27036922	     -8.22406952	     -0.69074987	      0.12517072	      9.86295936	     -9.76195672	     10.13718842	     20.38945871	     94.00490385	      9.23432447	    -10.59637825	     11.83249093	     19.60133339	     95.43202155
      0.13333330	     -7.57237295	      1.77345159	    -11.06658545	     -0.13270373	      1.29294693	     -0.12762015	     14.96276573	     -0.55047800	     -0.90305965	     16.13316825	      0.28157690	     11.67433009	     -7.04349278	     -7.33497470	     15.63904396	     -0.85713814	     -2.05741961	     17.38000611	      0.30333833	     12.23319227	     -4.95742176	     -7.33497470	     -8.00229267	     -1.00452279	     -0.08590472	     10.41241485	     -9.69301126	     11.81110542	     19.98896118	     96.25816106	      8.90675390	    -10.94053427	     11.48546045	     19.42756871	    100.10415677
      0.15000000	     -7.66737421	      1.82579245	    -11.13238555	     -0.14169469	      1.29321113	     -0.13272700	     15.18694510	     -0.58447303	     -0.88082537	     16.24414267	      0.28351377	     11.54344532	     -7.02630049	     -7.33528397	     15.88375724	     -0.85167940	     -1.97091472	     17.32598254	      0.30239544	     12.25804467	     -4.91315600	     -7.33528397	     -8.10761410	     -1.00356292	     -0.05569883	     10.77190721	     -9.61137068	     11.80793037	     20.14537156	     96.25353011	      9.14630055	    -10.97989740	     11.48390482	     19.50378955	    100.11498759
      0.16666670	     -8.15007147	      1.99089173	    -11.11964762	     -0.14119913	      1.29224992	     -0.13233592	     15.99657519	     -0.63643977	     -0.71262346	     16.69896121	      0.29145185	     11.32879839	     -7.43763886	     -7.38055510	     16.69617464	     -0.82289917	     -2.04464676	     17.37560161	      0.30326146	     12.13287391	     -5.10433083	     -7.38055510	     -7.71821547	     -1.05768841	     -0.40000754	     11.04042568	     -9.63318193	     13.25549499	     20.70826653	     94.50913580	      8.80793927	    -11.35220048	     12.50437709	     19.76722002	     99.37395958
